# Blender v2.93.1 OBJ File: ''
# www.blender.org
mtllib laser_base_rework.mtl
o base_setup_base
v 16.000000 4.000000 16.000000
v 20.000000 0.000000 -20.000000
v 16.000000 4.000000 -16.000000
v 20.000000 0.000000 20.000000
v -20.000000 0.000000 20.000000
v -16.000000 4.000000 16.000000
v -20.000000 0.000000 -20.000000
v -16.000000 4.000000 -16.000000
v 0.000000 10.000000 0.000000
vn 0.7071 0.7071 0.0000
vn 0.0000 0.7071 0.7071
vn 0.0000 -1.0000 0.0000
vn 0.0000 0.7071 -0.7071
vn -0.7071 0.7071 0.0000
vn 0.3511 0.9363 0.0000
vn 0.0000 0.9363 0.3511
vn 0.0000 0.9363 -0.3511
vn -0.3511 0.9363 0.0000
usemtl Material.002
s off
f 1//1 2//1 3//1
f 2//1 1//1 4//1
f 5//2 1//2 6//2
f 1//2 5//2 4//2
f 5//3 2//3 4//3
f 2//3 5//3 7//3
f 2//4 8//4 3//4
f 8//4 2//4 7//4
f 7//5 6//5 8//5
f 6//5 7//5 5//5
f 3//6 9//6 1//6
f 9//7 6//7 1//7
f 3//8 8//8 9//8
f 8//9 6//9 9//9
o base_setup_ball
v 0.954397 12.695518 -1.196776
v 0.954397 12.695518 1.196776
v 1.530734 12.695518 0.000000
v -0.340620 12.695518 -1.492355
v -0.340620 12.695518 1.492355
v -1.379143 12.695518 -0.664160
v -1.379143 12.695518 0.664160
v 3.695518 10.530734 0.000000
v 2.304118 10.530734 -2.889272
v -0.822330 10.530734 -3.602864
v -3.329547 10.530734 -1.603425
v -3.329547 10.530734 1.603425
v -0.822330 10.530734 3.602864
v 2.304118 10.530734 2.889272
v 3.695518 7.469266 0.000000
v 2.304118 7.469266 -2.889272
v -0.822330 7.469266 -3.602864
v -3.329547 7.469266 -1.603425
v -3.329547 7.469266 1.603425
v -0.822330 7.469266 3.602864
v 2.304118 7.469266 2.889272
v 1.530734 5.304482 0.000000
v 0.954397 5.304482 -1.196776
v -0.340620 5.304482 -1.492355
v -1.379143 5.304482 -0.664160
v -1.379143 5.304482 0.664160
v -0.340620 5.304482 1.492355
v 0.954397 5.304482 1.196776
vn 0.0000 1.0000 0.0000
vn 0.6694 0.6694 -0.3223
vn 0.1653 0.6694 -0.7243
vn -0.4632 0.6694 -0.5809
vn -0.7429 0.6694 0.0000
vn -0.4632 0.6694 0.5809
vn 0.1653 0.6694 0.7243
vn 0.6694 0.6694 0.3223
vn 0.9010 0.0000 -0.4339
vn 0.2225 0.0000 -0.9749
vn -0.6235 0.0000 -0.7818
vn -1.0000 0.0000 0.0000
vn -0.6235 0.0000 0.7818
vn 0.2225 0.0000 0.9749
vn 0.9010 0.0000 0.4339
vn 0.6694 -0.6694 -0.3223
vn 0.1653 -0.6694 -0.7243
vn -0.4632 -0.6694 -0.5809
vn -0.7429 -0.6694 0.0000
vn -0.4632 -0.6694 0.5809
vn 0.1653 -0.6694 0.7243
vn 0.6694 -0.6694 0.3223
vn 0.0000 -1.0000 0.0000
usemtl Material.001
s off
f 10//10 11//10 12//10
f 13//10 11//10 10//10
f 13//10 14//10 11//10
f 15//10 14//10 13//10
f 14//10 15//10 16//10
f 17//11 18//11 12//11
f 18//11 10//11 12//11
f 18//12 19//12 10//12
f 19//12 13//12 10//12
f 19//13 20//13 13//13
f 20//13 15//13 13//13
f 20//14 21//14 15//14
f 21//14 16//14 15//14
f 21//15 22//15 16//15
f 22//15 14//15 16//15
f 22//16 23//16 14//16
f 23//16 11//16 14//16
f 23//17 17//17 11//17
f 17//17 12//17 11//17
f 24//18 25//18 17//18
f 25//18 18//18 17//18
f 25//19 26//19 18//19
f 26//19 19//19 18//19
f 26//20 27//20 19//20
f 27//20 20//20 19//20
f 27//21 28//21 20//21
f 28//21 21//21 20//21
f 28//22 29//22 21//22
f 29//22 22//22 21//22
f 29//23 30//23 22//23
f 30//23 23//23 22//23
f 30//24 24//24 23//24
f 24//24 17//24 23//24
f 31//25 32//25 24//25
f 32//25 25//25 24//25
f 32//26 33//26 25//26
f 33//26 26//26 25//26
f 33//27 34//27 26//27
f 34//27 27//27 26//27
f 34//28 35//28 27//28
f 35//28 28//28 27//28
f 35//29 36//29 28//29
f 36//29 29//29 28//29
f 36//30 37//30 29//30
f 37//30 30//30 29//30
f 37//31 31//31 30//31
f 31//31 24//31 30//31
f 37//32 32//32 31//32
f 36//32 32//32 37//32
f 36//32 33//32 32//32
f 35//32 33//32 36//32
f 33//32 35//32 34//32
